<?xml version="1.0" standalone="no"?><!DOCTYPE svg PUBLIC "-//W3C//DTD SVG 1.1//EN" "http://www.w3.org/Graphics/SVG/1.1/DTD/svg11.dtd"><svg t="1775309441970" class="icon" viewBox="0 0 1024 1024" version="1.1" xmlns="http://www.w3.org/2000/svg" p-id="4989" xmlns:xlink="http://www.w3.org/1999/xlink" width="180" height="180"><path d="M503.9 642.5c-7.2 1.35-50.85 44.55-65.25 38.25-12.6-4.95 7.2-49.95-3.6-64.8-10.8-14.85-93.6 0.45-124.65 15.3-30.6 14.85-80.55 55.35-98.1 109.35-17.1 53.1-15.3 110.7 15.3 136.35 30.6 26.1 75.6 2.7 75.6 2.7s0.45 64.35 41.85 73.35c40.5 9 121.05-13.05 161.1-76.5 40.05-63 29.7-163.35 22.5-196.2-7.65-33.3-17.55-39.15-24.75-37.8zM861.2 623.6c-51.75-44.1-214.2-78.75-238.5-62.1-24.75 17.1 14.85 58.05 2.25 64.8-11.7 7.2-43.2-27.45-55.35-22.95-11.7 4.95-28.8 102.15-5.85 162 22.95 60.3 109.35 151.65 167.85 125.1 58.5-26.55 50.85-73.8 50.85-73.8s79.65 18 108.9-31.5c30.15-49.05 10.35-126.9-30.15-161.55zM584.45 444.05c10.35 8.1 49.5-9.45 59.4 0.45 9.45 10.35-51.3 40.95-32.85 64.35 18.45 22.5 168.75 37.8 232.2 13.05 57.15-22.05 108.45-77.85 98.1-145.35-9-56.25-89.55-71.1-89.55-71.1s20.25-61.65-27-85.05c-83.25-41.85-144.45 27-183.15 89.55-34.65 55.35-67.5 126.45-57.15 134.1zM523.25 70.55c-57.6-13.95-101.25 62.55-101.25 62.55s-57.6-10.35-95.4 25.2c-46.35 42.75-36.45 105.3 8.55 164.25 40.05 51.75 104.4 94.5 115.65 89.1 11.25-5.85 10.35-47.7 22.95-51.75 13.5-4.5 20.25 60.75 49.05 53.55 28.8-7.2 101.25-134.1 102.15-200.25 1.8-58.95-31.95-126-101.7-142.65zM262.25 622.25c64.35-18.45 144.45-42.3 144.9-64.8 0.45-21.6-67.5-33.75-61.65-59.85 3.6-13.05 69.3-2.7 73.8-31.05 4.05-21.6-46.8-81-112.05-113.4-54.45-27-143.55-42.3-182.7 14.85-32.85 47.7 0.45 100.35 0.45 100.35s-57.15 44.55-40.95 93.15c18.9 58.5 105.3 81.9 178.2 60.75z" fill="#FFBE30" p-id="4990"></path></svg>